# Blender 4.3.2
# www.blender.org
mtllib cube.mtl
o Cube
v 1.000000 1.000000 -1.000000
v 1.000000 -1.000000 -1.000000
v 1.000000 1.000000 1.000000
v 1.000000 -1.000000 1.000000
v -1.000000 1.000000 -1.000000
v -1.000000 -1.000000 -1.000000
v -1.000000 1.000000 1.000000
v -1.000000 -1.000000 1.000000
vn -0.0000 1.0000 -0.0000
vn -0.0000 -0.0000 1.0000
vn -1.0000 -0.0000 -0.0000
vn -0.0000 -1.0000 -0.0000
vn 1.0000 -0.0000 -0.0000
vn -0.0000 -0.0000 -1.0000
vt 0.997727 -0.019274
vt 0.997726 1.013619
vt -0.019458 1.013619
vt -0.019458 -0.019274
vt 0.999216 1.001011
vt -0.017968 1.001011
vt -0.017968 -0.031883
vt 0.999217 -0.031883
vt 0.989780 0.995463
vt -0.027404 0.995463
vt -0.027404 -0.037431
vt 0.989780 -0.037430
vt 1.000210 -0.039448
vt 1.000210 0.993446
vt -0.016974 0.993446
vt -0.016974 -0.039448
vt 0.997726 0.997480
vt -0.019458 0.997480
vt -0.019458 -0.035413
vt 0.997727 -0.035413
vt 1.001700 0.997480
vt -0.015484 0.997480
vt -0.015484 -0.035413
vt 1.001700 -0.035413
s 0
usemtl Material
f 1/1/1 5/2/1 7/3/1 3/4/1
f 4/5/2 3/6/2 7/7/2 8/8/2
f 8/9/3 7/10/3 5/11/3 6/12/3
f 6/13/4 2/14/4 4/15/4 8/16/4
f 2/17/5 1/18/5 3/19/5 4/20/5
f 6/21/6 5/22/6 1/23/6 2/24/6
