# Blender 4.3.2
# www.blender.org
mtllib dog.mtl
o Cube
v -1.000000 -1.000000 1.000000
v -1.000000 1.000000 1.000000
v -1.000000 -1.000000 -1.000000
v -1.000000 1.000000 -1.000000
v 1.000000 -1.000000 1.000000
v 1.000000 1.000000 1.000000
v 1.000000 -1.000000 -1.000000
v 1.000000 1.000000 -1.000000
v -1.242879 -1.242879 0.000000
v -1.242879 1.242879 0.000000
v 1.242879 -1.242879 0.000000
v 1.242879 1.242879 0.000000
v -0.505854 0.726850 -1.000000
v -0.505854 -0.284859 -1.000000
v 0.505854 -0.284859 -1.000000
v 0.505854 0.726850 -1.000000
v -0.505854 0.713689 -1.093100
v -0.505854 -0.271698 -1.322374
v 0.505854 -0.271698 -1.322374
v 0.505854 0.713689 -1.093100
v -0.647870 0.952188 -1.491468
v -0.647870 -0.309840 -1.785110
v 0.647870 -0.309840 -1.785110
v 0.647870 0.952188 -1.491468
v -0.647870 1.181996 -2.479146
v -0.647870 -0.080033 -2.772788
v 0.647870 -0.080033 -2.772788
v 0.647870 1.181996 -2.479146
v -0.525699 1.009804 -2.863882
v -0.525699 -0.037411 -2.957572
v 0.525699 -0.037411 -2.957572
v 0.525699 1.009804 -2.863882
v 0.333333 -1.000000 -1.000000
v -0.333333 -1.000000 -1.000000
v -0.333333 1.000000 -1.000000
v 0.333333 1.000000 -1.000000
v -0.333333 -1.000000 1.000000
v 0.333333 -1.000000 1.000000
v 0.333333 1.000000 1.000000
v -0.333333 1.000000 1.000000
v -0.414293 1.242879 0.000000
v 0.414293 1.242879 0.000000
v 0.414293 -1.242879 0.000000
v -0.414293 -1.242879 0.000000
v 0.168618 -0.284859 -1.000000
v -0.168618 -0.284859 -1.000000
v -0.168618 0.726850 -1.000000
v 0.168618 0.726850 -1.000000
v 0.168618 -0.271698 -1.322374
v -0.168618 -0.271698 -1.322374
v -0.168618 0.713689 -1.093100
v 0.168618 0.713689 -1.093100
v 0.215957 -0.309840 -1.785110
v -0.215957 -0.309840 -1.785110
v -0.215957 0.952188 -1.491468
v 0.215957 0.952188 -1.491468
v 0.215957 -0.080033 -2.772788
v -0.215957 -0.080033 -2.772788
v -0.215957 1.181996 -2.479146
v 0.215957 1.181996 -2.479146
v 0.175233 -0.037411 -2.957572
v -0.175233 -0.037411 -2.957572
v -0.175233 1.009804 -2.863882
v 0.175233 1.009804 -2.863882
v -1.242879 -2.902630 0.403118
v -1.000000 -2.659751 1.403118
v 0.333333 -2.659751 1.403118
v 1.000000 -2.659751 1.403118
v 1.242879 -2.902630 0.403118
v -0.414293 -2.902630 0.403118
v -0.333333 -2.659751 1.403118
v 0.414293 -2.902630 0.403118
v -0.333333 -1.000000 3.099706
v 0.333333 -1.000000 3.099706
v 0.333333 1.000000 3.099706
v -0.333333 1.000000 3.099706
v -0.333333 -1.000000 3.884001
v 0.333333 -1.000000 3.884001
v 0.333333 1.000000 3.884001
v -0.333333 1.000000 3.884001
v 1.000685 0.546003 3.684492
v 1.000685 -1.453997 3.684492
v -1.064055 0.546003 3.684492
v -1.064055 -1.453997 3.684492
v 1.000685 0.546003 4.468788
v 1.000685 -1.453997 4.468788
v -1.064055 0.546003 4.468788
v -1.064055 -1.453997 4.468788
v -0.333333 -1.000000 3.099706
v -0.333333 -1.000000 3.884001
v -1.064055 -1.453997 3.684492
v -1.064055 -1.453997 4.468788
v 0.333333 -2.148829 3.884001
v 0.333333 -2.148829 3.099706
v 1.000685 -2.602827 4.468788
v 1.000685 -2.602827 3.684492
v -0.333333 -2.148829 3.099706
v -0.333333 -2.148829 3.884001
v -1.064055 -2.602827 3.684492
v -1.064055 -2.602827 4.468788
vn -0.9717 -0.0000 -0.2360
vn -0.0000 -0.0000 -1.0000
vn 0.9717 -0.0000 0.2360
vn -0.0000 -0.0000 1.0000
vn -0.9969 -0.0185 -0.0762
vn -0.0000 0.9717 0.2360
vn -0.0000 0.9717 -0.2360
vn -0.0000 -0.9717 -0.2360
vn 0.9717 -0.0000 -0.2360
vn -0.9717 -0.0000 0.2360
vn -0.0000 0.9902 -0.1400
vn 0.9521 -0.0693 0.2979
vn -1.0000 -0.0000 -0.0000
vn 1.0000 -0.0000 -0.0000
vn -0.0000 -0.9992 -0.0408
vn -0.0000 0.9740 0.2266
vn -0.0000 -0.9966 0.0821
vn -0.0000 0.8580 0.5137
vn -0.9521 -0.0693 0.2979
vn -0.9111 0.0682 -0.4064
vn -0.0000 -0.9740 -0.2266
vn -0.0000 0.0891 -0.9960
vn 0.9111 0.0682 -0.4064
vn -0.0000 -0.9744 -0.2248
vn -0.0000 0.9128 -0.4085
vn -0.9733 0.0542 0.2232
vn -0.0000 -0.9717 0.2360
vn -0.0000 0.2360 0.9717
vn 0.9733 0.0542 0.2232
vn 0.9969 -0.0185 -0.0762
vn -0.0000 -0.2360 -0.9717
vn -0.6248 -0.0000 -0.7808
vn -0.0000 1.0000 -0.0000
vn -0.0000 -1.0000 -0.0000
vn 0.5625 0.8268 -0.0000
vn -0.6590 -0.0000 0.7521
vn -0.5277 0.8494 -0.0000
vn 0.6590 -0.0000 -0.7521
vn 0.6248 -0.0000 0.7808
vn -0.5625 -0.8268 -0.0000
vn 0.5277 -0.8494 -0.0000
vt 0.375000 0.125000
vt 0.625000 0.125000
vt 0.625000 0.250000
vt 0.375000 0.250000
vt 0.708333 0.500000
vt 0.625000 0.500000
vt 0.708333 0.500000
vt 0.375000 0.625000
vt 0.625000 0.625000
vt 0.625000 0.750000
vt 0.375000 0.750000
vt 0.375000 0.916667
vt 0.625000 0.916667
vt 0.625000 1.000000
vt 0.375000 1.000000
vt 0.291667 0.750000
vt 0.291667 0.625000
vt 0.791667 0.625000
vt 0.875000 0.625000
vt 0.875000 0.750000
vt 0.791667 0.750000
vt 0.791667 0.500000
vt 0.875000 0.500000
vt 0.291667 0.500000
vt 0.375000 0.500000
vt 0.375000 0.000000
vt 0.625000 0.000000
vt 0.708333 0.500000
vt 0.208333 0.500000
vt 0.125000 0.500000
vt 0.208333 0.500000
vt 0.375000 0.416667
vt 0.625000 0.416667
vt 0.791667 0.500000
vt 0.291667 0.500000
vt 0.625000 0.333333
vt 0.375000 0.333333
vt 0.291667 0.500000
vt 0.791667 0.500000
vt 0.208333 0.625000
vt 0.125000 0.625000
vt 0.708333 0.625000
vt 0.708333 0.750000
vt 0.208333 0.750000
vt 0.625000 0.833333
vt 0.375000 0.833333
vt 0.125000 0.750000
s 0
f 9/1/1 10/2/1 4/3/1 3/4/1
f 36/5/2 8/6/2 16/6/2 48/7/2
f 11/8/3 12/9/3 6/10/3 5/11/3
f 37/12/4 40/13/4 2/14/4 1/15/4
f 38/16/5 43/17/5 72/17/5 67/16/5
f 41/18/6 10/19/6 2/20/6 40/21/6
f 35/22/7 4/23/7 10/19/7 41/18/7
f 33/24/8 7/25/8 11/8/8 43/17/8
f 7/25/9 8/6/9 12/9/9 11/8/9
f 1/26/10 2/27/10 10/2/10 9/1/10
f 48/7/11 16/6/11 20/6/11 52/28/11
f 3/4/2 4/3/2 13/3/2 14/4/2
f 8/6/2 7/25/2 15/25/2 16/6/2
f 34/29/2 3/30/2 14/30/2 46/29/2
f 20/6/12 19/25/12 23/25/12 24/6/12
f 14/4/13 13/3/13 17/3/13 18/4/13
f 16/6/14 15/25/14 19/25/14 20/6/14
f 46/29/15 14/30/15 18/30/15 50/31/15
f 56/7/16 24/6/16 28/6/16 60/7/16
f 50/31/17 18/30/17 22/30/17 54/29/17
f 52/28/18 20/6/18 24/6/18 56/7/18
f 18/4/19 17/3/19 21/3/19 22/4/19
f 26/4/20 25/3/20 29/3/20 30/4/20
f 22/4/13 21/3/13 25/3/13 26/4/13
f 24/6/14 23/25/14 27/25/14 28/6/14
f 54/29/21 22/30/21 26/30/21 58/29/21
f 61/32/22 64/33/22 32/6/22 31/25/22
f 28/6/23 27/25/23 31/25/23 32/6/23
f 58/29/24 26/30/24 30/30/24 62/29/24
f 60/7/25 28/6/25 32/6/25 64/7/25
f 25/23/25 59/34/25 63/34/25 29/23/25
f 59/34/25 60/7/25 64/7/25 63/34/25
f 27/25/24 57/35/24 61/35/24 31/25/24
f 57/35/24 58/29/24 62/29/24 61/35/24
f 30/4/22 29/3/22 63/36/22 62/37/22
f 62/37/22 63/36/22 64/33/22 61/32/22
f 23/25/21 53/35/21 57/35/21 27/25/21
f 53/35/21 54/29/21 58/29/21 57/35/21
f 17/23/18 51/34/18 55/34/18 21/23/18
f 51/34/18 52/28/18 56/7/18 55/34/18
f 19/25/17 49/35/17 53/35/17 23/25/17
f 49/35/17 50/31/17 54/29/17 53/35/17
f 21/23/16 55/34/16 59/34/16 25/23/16
f 55/34/16 56/7/16 60/7/16 59/34/16
f 15/25/15 45/38/15 49/35/15 19/25/15
f 45/38/15 46/29/15 50/31/15 49/35/15
f 7/25/2 33/24/2 45/38/2 15/25/2
f 33/24/2 34/29/2 46/29/2 45/38/2
f 13/23/11 47/39/11 51/34/11 17/23/11
f 47/39/11 48/7/11 52/28/11 51/34/11
f 3/30/8 34/29/8 44/40/8 9/41/8
f 34/29/8 33/24/8 43/17/8 44/40/8
f 8/6/7 36/5/7 42/42/7 12/9/7
f 36/5/7 35/22/7 41/18/7 42/42/7
f 12/9/6 42/42/6 39/43/6 6/10/6
f 42/42/6 41/18/6 40/21/6 39/43/6
f 1/26/26 9/1/26 65/1/26 66/26/26
f 44/40/27 43/17/27 38/16/27 37/44/27
f 5/11/4 6/10/4 39/45/4 38/46/4
f 40/13/13 37/12/13 73/12/13 76/13/13
f 4/23/2 35/22/2 47/39/2 13/23/2
f 35/22/2 36/5/2 48/7/2 47/39/2
f 72/17/27 69/8/27 68/11/27 67/16/27
f 65/41/27 70/40/27 71/44/27 66/47/27
f 37/12/28 1/15/28 66/15/28 71/12/28
f 11/8/29 5/11/29 68/11/29 69/8/29
f 5/11/28 38/46/28 67/46/28 68/11/28
f 44/40/30 37/44/30 71/44/30 70/40/30
f 9/41/31 44/40/31 70/40/31 65/41/31
f 43/17/31 11/8/31 69/8/31 72/17/31
f 76/13/32 73/12/32 84/12/32 83/13/32
f 39/43/33 40/21/33 76/21/33 75/43/33
f 37/44/34 38/16/34 74/16/34 73/44/34
f 38/46/14 39/45/14 75/45/14 74/46/14
f 78/46/4 79/45/4 80/13/4 77/12/4
f 75/43/33 76/21/33 80/21/33 79/43/33
f 75/43/35 79/43/35 85/43/35 81/43/35
f 73/44/34 74/16/34 78/16/34 77/44/34
f 83/13/13 84/12/13 88/12/13 87/13/13
f 82/46/14 81/45/14 85/45/14 86/46/14
f 73/44/33 77/44/33 90/44/33 89/44/33
f 79/45/36 78/46/36 86/46/36 85/45/36
f 82/46/14 86/46/14 95/46/14 96/46/14
f 80/21/37 76/21/37 83/21/37 87/21/37
f 74/46/38 75/45/38 81/45/38 82/46/38
f 77/12/39 80/13/39 87/13/39 88/12/39
f 91/12/32 89/12/32 97/12/32 99/12/32
f 77/12/33 88/12/33 92/12/33 90/12/33
f 84/12/33 73/12/33 89/12/33 91/12/33
f 88/12/33 84/12/33 91/12/33 92/12/33
f 93/16/40 94/16/40 96/16/40 95/16/40
f 97/44/41 98/44/41 100/44/41 99/44/41
f 89/44/14 90/44/14 98/44/14 97/44/14
f 74/46/38 82/46/38 96/46/38 94/46/38
f 78/16/13 74/16/13 94/16/13 93/16/13
f 90/12/39 92/12/39 100/12/39 98/12/39
f 92/12/13 91/12/13 99/12/13 100/12/13
f 86/46/36 78/46/36 93/46/36 95/46/36
